<svg id="Warstwa_1" data-name="Warstwa 1" xmlns="http://www.w3.org/2000/svg" viewBox="0 0 29.86 20.73"><defs><style>.cls-1{fill:none;}.cls-2{fill:#fff;}</style></defs><g id="Polygon_1" data-name="Polygon 1"><path class="cls-1" d="M16.51,20a2,2,0,0,1-2.8.36,1.54,1.54,0,0,1-.36-.36L.42,3.22A2,2,0,0,1,2,0H27.86a2,2,0,0,1,1.58,3.22Z"/><path class="cls-2" d="M14.93,17.09,25.82,3H4L14.93,17.09m0,3.64A2,2,0,0,1,13.35,20L.42,3.22A2,2,0,0,1,2,0H27.86a2,2,0,0,1,1.58,3.22L16.51,20A2,2,0,0,1,14.93,20.73Z"/></g></svg>