<svg id="Warstwa_1" data-name="Warstwa 1" xmlns="http://www.w3.org/2000/svg" viewBox="0 0 331.08 259.78"><defs><style>.cls-1{fill:#74cbf3;}.cls-2{fill:#fff;}.cls-2,.cls-4{stroke:#28348a;}.cls-2,.cls-3,.cls-4{stroke-miterlimit:10;stroke-width:7.72px;}.cls-3,.cls-4{fill:none;}.cls-3{stroke:#74cbf3;}</style></defs><rect class="cls-1" y="129.4" width="46.04" height="119.82"/><path class="cls-2" d="M23,238.89a8.22,8.22,0,1,1,8.21-8.22A8.22,8.22,0,0,1,23,238.89Z"/><path class="cls-3" d="M240.41,189.31l79.38-32.82s17.33,11.4-.91,27.36L186.26,255.68,46,222.46v-66L114.51,141l106.74,30.56s19.16,4.08,19.16,17.77c0,0-1.38,18.7-19.16,14.16L162,189.31"/><path class="cls-1" d="M225.19,74.05c0-1.87-.1-3.71-.26-5.53l12.33-3.23-5.53-21.13-12.57,3.29a61.7,61.7,0,0,0-10.21-15L217,22,199.74,8.61,191.57,19.2a61,61,0,0,0-17-5.74V0H152.69V13.46a61.31,61.31,0,0,0-16.24,5.33l-8-10.71L111,21.18l7.93,10.58a62.13,62.13,0,0,0-8,10.46L98.63,37.71l-7.55,20.5,12,4.42A61.49,61.49,0,0,0,102,74.05c0,1.35,0,2.69.14,4L90,81.27,95.5,102.4l11.93-3.13A62.35,62.35,0,0,0,117.62,115l-7.43,9.62L127.48,138l7.32-9.49a61.1,61.1,0,0,0,17.89,6.18v11.9h21.84v-11.9a61.51,61.51,0,0,0,17.09-5.75l7.17,9.58,17.48-13.09L209,115.66a62.5,62.5,0,0,0,8.08-11.06l11.52,4.24,7.54-20.49L224.37,84A60.7,60.7,0,0,0,225.19,74.05Zm-61.58,29.64A30.42,30.42,0,1,1,194,73.28,30.42,30.42,0,0,1,163.61,103.69Z"/><path class="cls-4" d="M163.61,116.3a43,43,0,1,1,0-86"/></svg>